<svg width="17" height="17" viewBox="0 0 17 17" fill="none" xmlns="http://www.w3.org/2000/svg">
<path d="M9.13325 7.5334H4.33325C4.12108 7.5334 3.9176 7.61768 3.76757 7.76771C3.61754 7.91773 3.53325 8.12121 3.53325 8.33338C3.53325 8.54555 3.61754 8.74904 3.76757 8.89906C3.9176 9.04909 4.12108 9.13337 4.33325 9.13337H9.13325C9.34543 9.13337 9.54891 9.04909 9.69894 8.89906C9.84897 8.74904 9.93325 8.54555 9.93325 8.33338C9.93325 8.12121 9.84897 7.91773 9.69894 7.76771C9.54891 7.61768 9.34543 7.5334 9.13325 7.5334ZM12.3333 4.33344H4.33325C4.12108 4.33344 3.9176 4.41772 3.76757 4.56775C3.61754 4.71778 3.53325 4.92126 3.53325 5.13343C3.53325 5.3456 3.61754 5.54908 3.76757 5.69911C3.9176 5.84913 4.12108 5.93342 4.33325 5.93342H12.3333C12.5454 5.93342 12.7489 5.84913 12.8989 5.69911C13.049 5.54908 13.1333 5.3456 13.1333 5.13343C13.1333 4.92126 13.049 4.71778 12.8989 4.56775C12.7489 4.41772 12.5454 4.33344 12.3333 4.33344ZM13.9333 0.333496H2.73325C2.09673 0.333496 1.48628 0.586349 1.0362 1.03643C0.586108 1.48651 0.333252 2.09695 0.333252 2.73346V10.7334C0.333252 11.3699 0.586108 11.9803 1.0362 12.4304C1.48628 12.8805 2.09673 13.1333 2.73325 13.1333H12.0053L14.9653 16.1013C15.04 16.1754 15.1287 16.2341 15.2261 16.2739C15.3236 16.3137 15.428 16.3339 15.5333 16.3333C15.6382 16.336 15.7423 16.3141 15.8373 16.2693C15.9833 16.2093 16.1084 16.1073 16.1967 15.9764C16.2849 15.8454 16.3325 15.6912 16.3333 15.5333V2.73346C16.3333 2.09695 16.0804 1.48651 15.6303 1.03643C15.1802 0.586349 14.5698 0.333496 13.9333 0.333496ZM14.7333 13.6053L12.9013 11.7653C12.8265 11.6912 12.7378 11.6325 12.6404 11.5927C12.5429 11.5529 12.4385 11.5327 12.3333 11.5333H2.73325C2.52108 11.5333 2.3176 11.4491 2.16757 11.299C2.01754 11.149 1.93325 10.9455 1.93325 10.7334V2.73346C1.93325 2.52129 2.01754 2.31781 2.16757 2.16779C2.3176 2.01776 2.52108 1.93347 2.73325 1.93347H13.9333C14.1454 1.93347 14.3489 2.01776 14.4989 2.16779C14.649 2.31781 14.7333 2.52129 14.7333 2.73346V13.6053Z" fill="white"/>
</svg>
