<svg width="32" height="32" viewBox="0 0 32 32" fill="none" xmlns="http://www.w3.org/2000/svg">
<path d="M23.0039 6.38649L26.0633 9.44588L26.5263 9.90894L27.587 8.84828L27.1239 8.38522L24.0645 5.32583L23.0039 6.38649ZM28.6319 3.69398L29.2462 4.30822C29.8425 4.90457 30.0011 5.07757 30.0788 5.23615C30.2487 5.58307 30.2487 5.98908 30.0788 6.336C30.0011 6.49458 29.8425 6.66757 29.2462 7.26392L19.8324 16.6777C19.6529 16.8572 19.6041 16.9043 19.5549 16.9433C19.4496 17.0265 19.3316 17.0923 19.2054 17.138C19.1464 17.1594 19.0806 17.1761 18.8335 17.2342L15.9281 17.9183C15.6273 17.9891 15.4368 18.0336 15.2943 18.0576C15.2031 18.0729 15.1622 18.0739 15.1517 18.074C15.0595 18.0523 14.9874 17.9801 14.9658 17.8878C14.9659 17.8773 14.967 17.8365 14.9824 17.7453C15.0066 17.6028 15.0513 17.4124 15.1226 17.1117L15.8748 13.9357C15.9331 13.6893 15.9499 13.6237 15.9713 13.5649C16.017 13.439 16.0827 13.3214 16.1657 13.2164C16.2046 13.1673 16.2516 13.1186 16.4307 12.9395L25.6762 3.69398C26.2726 3.09763 26.4456 2.93905 26.6042 2.86136C26.9511 2.69141 27.3571 2.69141 27.704 2.86136C27.8626 2.93905 28.0356 3.09763 28.6319 3.69398Z" stroke="black" stroke-width="1.5"/>
<path d="M23.0039 6.38649L26.0633 9.44588L26.5263 9.90894L27.587 8.84828L27.1239 8.38522L24.0645 5.32583L23.0039 6.38649ZM28.6319 3.69398L29.2462 4.30822C29.8425 4.90457 30.0011 5.07757 30.0788 5.23615C30.2487 5.58307 30.2487 5.98908 30.0788 6.336C30.0011 6.49458 29.8425 6.66757 29.2462 7.26392L19.8324 16.6777C19.6529 16.8572 19.6041 16.9043 19.5549 16.9433C19.4496 17.0265 19.3316 17.0923 19.2054 17.138C19.1464 17.1594 19.0806 17.1761 18.8335 17.2342L15.9281 17.9183C15.6273 17.9891 15.4368 18.0336 15.2943 18.0576C15.2031 18.0729 15.1622 18.0739 15.1517 18.074C15.0595 18.0523 14.9874 17.9801 14.9658 17.8878C14.9659 17.8773 14.967 17.8365 14.9824 17.7453C15.0066 17.6028 15.0513 17.4124 15.1226 17.1117L15.8748 13.9357C15.9331 13.6893 15.9499 13.6237 15.9713 13.5649C16.017 13.439 16.0827 13.3214 16.1657 13.2164C16.2046 13.1673 16.2516 13.1186 16.4307 12.9395L25.6762 3.69398C26.2726 3.09763 26.4456 2.93905 26.6042 2.86136C26.9511 2.69141 27.3571 2.69141 27.704 2.86136C27.8626 2.93905 28.0356 3.09763 28.6319 3.69398Z" stroke="black" stroke-width="1.5"/>
<path fill-rule="evenodd" clip-rule="evenodd" d="M19.1942 7.26306L10.4108 7.26306C9.58234 7.26306 8.91077 7.93463 8.91077 8.76306L8.91077 21.0993C8.91077 21.9277 9.58234 22.5993 10.4108 22.5993L22.747 22.5993C23.5754 22.5993 24.247 21.9277 24.247 21.0993L24.247 15.176L25.747 13.676L25.747 21.0993C25.747 22.7562 24.4039 24.0993 22.747 24.0993L10.4108 24.0993C8.75391 24.0993 7.41077 22.7562 7.41077 21.0993L7.41077 8.76306C7.41076 7.10621 8.75391 5.76306 10.4108 5.76306L20.6942 5.76306L19.1942 7.26306Z" fill="black"/>
</svg>
