<svg width="36" height="36" viewBox="0 0 36 36" fill="none" xmlns="http://www.w3.org/2000/svg">
<g clip-path="url(#clip0_1_2)">
<path d="M23.5939 10.4065L26.6533 13.4659L27.1163 13.9289L28.177 12.8683L27.7139 12.4052L24.6545 9.34583L23.5939 10.4065ZM29.2219 7.71398L29.8362 8.32822C30.4325 8.92457 30.5911 9.09757 30.6688 9.25615C30.8387 9.60307 30.8387 10.0091 30.6688 10.356C30.5911 10.5146 30.4325 10.6876 29.8362 11.2839L20.4224 20.6977C20.2429 20.8772 20.1941 20.9243 20.1449 20.9633C20.0396 21.0465 19.9216 21.1123 19.7954 21.158C19.7364 21.1794 19.6706 21.1961 19.4235 21.2542L16.5181 21.9383C16.2173 22.0091 16.0268 22.0536 15.8843 22.0776C15.7931 22.0929 15.7522 22.0939 15.7417 22.094C15.6495 22.0723 15.5774 22.0001 15.5558 21.9078C15.5559 21.8973 15.557 21.8565 15.5724 21.7653C15.5966 21.6228 15.6413 21.4324 15.7126 21.1317L16.4648 17.9557C16.5231 17.7093 16.5399 17.6437 16.5613 17.5849C16.607 17.459 16.6727 17.3414 16.7557 17.2364C16.7946 17.1873 16.8416 17.1386 17.0207 16.9595L26.2662 7.71398C26.8626 7.11763 27.0356 6.95905 27.1942 6.88136C27.5411 6.71141 27.9471 6.71141 28.294 6.88136C28.4526 6.95905 28.6256 7.11763 29.2219 7.71398Z" stroke="black" stroke-width="1.5"/>
<path d="M23.5939 10.4065L26.6533 13.4659L27.1163 13.9289L28.177 12.8683L27.7139 12.4052L24.6545 9.34583L23.5939 10.4065ZM29.2219 7.71398L29.8362 8.32822C30.4325 8.92457 30.5911 9.09757 30.6688 9.25615C30.8387 9.60307 30.8387 10.0091 30.6688 10.356C30.5911 10.5146 30.4325 10.6876 29.8362 11.2839L20.4224 20.6977C20.2429 20.8772 20.1941 20.9243 20.1449 20.9633C20.0396 21.0465 19.9216 21.1123 19.7954 21.158C19.7364 21.1794 19.6706 21.1961 19.4235 21.2542L16.5181 21.9383C16.2173 22.0091 16.0268 22.0536 15.8843 22.0776C15.7931 22.0929 15.7522 22.0939 15.7417 22.094C15.6495 22.0723 15.5774 22.0001 15.5558 21.9078C15.5559 21.8973 15.557 21.8565 15.5724 21.7653C15.5966 21.6228 15.6413 21.4324 15.7126 21.1317L16.4648 17.9557C16.5231 17.7093 16.5399 17.6437 16.5613 17.5849C16.607 17.459 16.6727 17.3414 16.7557 17.2364C16.7946 17.1873 16.8416 17.1386 17.0207 16.9595L26.2662 7.71398C26.8626 7.11763 27.0356 6.95905 27.1942 6.88136C27.5411 6.71141 27.9471 6.71141 28.294 6.88136C28.4526 6.95905 28.6256 7.11763 29.2219 7.71398Z" stroke="black" stroke-width="1.5"/>
<path fill-rule="evenodd" clip-rule="evenodd" d="M19.7842 11.2831H11.0008C10.1723 11.2831 9.50077 11.9546 9.50077 12.7831V25.1193C9.50077 25.9477 10.1723 26.6193 11.0008 26.6193H23.337C24.1654 26.6193 24.837 25.9477 24.837 25.1193V19.196L26.337 17.696V25.1193C26.337 26.7762 24.9939 28.1193 23.337 28.1193H11.0008C9.34391 28.1193 8.00077 26.7762 8.00077 25.1193V12.7831C8.00076 11.1262 9.34391 9.78306 11.0008 9.78306H21.2842L19.7842 11.2831Z" fill="black"/>
</g>
<defs>
<clipPath id="clip0_1_2">
<rect width="23.55" height="22.12" fill="white" transform="translate(8 6)"/>
</clipPath>
</defs>
</svg>
